<svg xmlns="http://www.w3.org/2000/svg" viewBox="0 0 418.27 81.91"><defs><style>.cls-1{fill:#2e51ff;}.cls-2{fill:#fff;}</style></defs><g id="Layer_2" data-name="Layer 2"><g id="Layer_1-2" data-name="Layer 1"><rect class="cls-1" width="81.91" height="81.91" rx="10.36"/><rect class="cls-2" x="13.78" y="22.92" width="37.17" height="37.17" rx="4.13"/><rect class="cls-2" x="53.54" y="24.1" width="18.92" height="18.3" rx="2.62"/><rect class="cls-2" x="53.54" y="44.75" width="14.5" height="14.03" rx="2"/><path class="cls-1" d="M110.49,69V17.78h18.16a35.39,35.39,0,0,1,7.82.83,17.43,17.43,0,0,1,6.37,2.75,13.43,13.43,0,0,1,4.29,5.11,17.66,17.66,0,0,1,1.57,7.82,17.6,17.6,0,0,1-1.61,7.78,15.09,15.09,0,0,1-4.37,5.43,18.56,18.56,0,0,1-6.36,3.14,28.33,28.33,0,0,1-7.71,1h-6.6V69Zm11.56-26.57h5.89q9.44,0,9.44-8.18,0-4-2.4-5.66c-1.6-1.1-3.94-1.65-7-1.65h-5.89Z"/><path class="cls-1" d="M155.54,69V32.3h7.7v9l-.42,5H163a15.79,15.79,0,0,1,3.56-2.7,10.32,10.32,0,0,1,5.09-1.18c2.93,0,5.07,1,6.42,2.83a13.21,13.21,0,0,1,2,7.76V69h-7.7V54a6.81,6.81,0,0,0-.84-3.83,3.39,3.39,0,0,0-3-1.21,5.39,5.39,0,0,0-2.76.69,12.71,12.71,0,0,0-2.54,2V69Z"/><path class="cls-1" d="M198.93,69.67a13.71,13.71,0,0,1-5-.92,13,13,0,0,1-4.25-2.65,12.55,12.55,0,0,1-3-4.27,15.79,15.79,0,0,1,0-11.58,12.65,12.65,0,0,1,3-4.27A13.12,13.12,0,0,1,194,43.33a13.78,13.78,0,0,1,9.9,0A13.12,13.12,0,0,1,208.13,46a12.51,12.51,0,0,1,3,4.27,14.31,14.31,0,0,1,1.1,5.79,14.31,14.31,0,0,1-1.1,5.79,12.42,12.42,0,0,1-3,4.27,13,13,0,0,1-4.25,2.65A13.71,13.71,0,0,1,198.93,69.67Zm0-6.24a4.5,4.5,0,0,0,4-2,9.59,9.59,0,0,0,1.34-5.4,9.59,9.59,0,0,0-1.34-5.4,5,5,0,0,0-8,0,9.59,9.59,0,0,0-1.33,5.4,9.59,9.59,0,0,0,1.33,5.4A4.5,4.5,0,0,0,198.93,63.43Z"/><path class="cls-1" d="M235,69.67a14.43,14.43,0,0,1-5.24-.84,9.11,9.11,0,0,1-3.49-2.33,8.82,8.82,0,0,1-1.91-3.59,17.82,17.82,0,0,1-.58-4.67V49.07h-6.55V43.36l6.92-.32,1-8h6.34v8h11v6h-11v9.12c0,2,.44,3.4,1.31,4.22A6,6,0,0,0,237,63.64a13.3,13.3,0,0,0,2.7-.26,21.62,21.62,0,0,0,2.44-.68l1.36,5.55c-1.15.35-2.42.68-3.8,1A22.15,22.15,0,0,1,235,69.67Z"/><path class="cls-1" d="M261.82,69.67a13.71,13.71,0,0,1-4.95-.92,13,13,0,0,1-4.25-2.65,12.55,12.55,0,0,1-3-4.27,15.79,15.79,0,0,1,0-11.58,12.65,12.65,0,0,1,3-4.27,13.12,13.12,0,0,1,4.25-2.65,13.8,13.8,0,0,1,9.91,0A13.18,13.18,0,0,1,271,46a12.51,12.51,0,0,1,3,4.27,14.31,14.31,0,0,1,1.1,5.79,14.31,14.31,0,0,1-1.1,5.79,12.42,12.42,0,0,1-3,4.27,13,13,0,0,1-4.24,2.65A13.76,13.76,0,0,1,261.82,69.67Zm0-6.24a4.49,4.49,0,0,0,4-2,9.59,9.59,0,0,0,1.34-5.4,9.59,9.59,0,0,0-1.34-5.4,5,5,0,0,0-8,0,9.59,9.59,0,0,0-1.33,5.4,9.59,9.59,0,0,0,1.33,5.4A4.5,4.5,0,0,0,261.82,63.43Z"/><path class="cls-1" d="M283.36,69V17.78h17.22a44.15,44.15,0,0,1,7.43.59,17.25,17.25,0,0,1,5.93,2.08,11.35,11.35,0,0,1,4,3.93,11.92,11.92,0,0,1,1.45,6.14,12.12,12.12,0,0,1-.51,3.45,10.41,10.41,0,0,1-1.61,3.23,11.91,11.91,0,0,1-2.76,2.67,11,11,0,0,1-3.93,1.73v.32q5.51,1,8.34,3.93c1.88,1.94,2.83,4.64,2.83,8.09a14.21,14.21,0,0,1-1.5,6.76,12.89,12.89,0,0,1-4.16,4.68,19.13,19.13,0,0,1-6.25,2.75,31.26,31.26,0,0,1-7.75.91Zm11.56-30.66H300q4.25,0,6.13-1.65a5.84,5.84,0,0,0,1.89-4.64A4.41,4.41,0,0,0,306.12,28c-1.28-.81-3.29-1.22-6-1.22h-5.19Zm0,21.62h6.21q9.27,0,9.28-6.92a5.42,5.42,0,0,0-2.24-4.87c-1.5-1-3.84-1.5-7-1.5h-6.21Z"/><path class="cls-1" d="M340.44,69.67a13.72,13.72,0,0,1-5-.92,12.91,12.91,0,0,1-4.24-2.65,12.42,12.42,0,0,1-3-4.27,14.31,14.31,0,0,1-1.1-5.79,14.31,14.31,0,0,1,1.1-5.79,12.51,12.51,0,0,1,3-4.27,13.07,13.07,0,0,1,4.24-2.65,13.8,13.8,0,0,1,9.91,0A13.22,13.22,0,0,1,349.64,46a12.79,12.79,0,0,1,3,4.27,15.79,15.79,0,0,1,0,11.58,12.69,12.69,0,0,1-3,4.27,13.05,13.05,0,0,1-4.25,2.65A13.71,13.71,0,0,1,340.44,69.67Zm0-6.24a4.5,4.5,0,0,0,4-2,9.59,9.59,0,0,0,1.33-5.4,9.59,9.59,0,0,0-1.33-5.4,5,5,0,0,0-8,0,9.59,9.59,0,0,0-1.34,5.4,9.59,9.59,0,0,0,1.34,5.4A4.49,4.49,0,0,0,340.44,63.43Z"/><path class="cls-1" d="M371.88,69.67a13.71,13.71,0,0,1-4.95-.92,13,13,0,0,1-4.25-2.65,12.55,12.55,0,0,1-3-4.27,15.79,15.79,0,0,1,0-11.58,12.65,12.65,0,0,1,3-4.27,13.12,13.12,0,0,1,4.25-2.65,13.78,13.78,0,0,1,9.9,0A13.12,13.12,0,0,1,381.08,46a12.51,12.51,0,0,1,3,4.27,15.79,15.79,0,0,1,0,11.58,12.42,12.42,0,0,1-3,4.27,13,13,0,0,1-4.25,2.65A13.67,13.67,0,0,1,371.88,69.67Zm0-6.24a4.5,4.5,0,0,0,4-2,9.59,9.59,0,0,0,1.34-5.4,9.59,9.59,0,0,0-1.34-5.4,5,5,0,0,0-8,0,9.59,9.59,0,0,0-1.33,5.4,9.59,9.59,0,0,0,1.33,5.4A4.5,4.5,0,0,0,371.88,63.43Z"/><path class="cls-1" d="M391.59,69V32.3h7.7V53.52h.21L409,43h8.44l-9.91,10.59L418.27,69h-8.34L403.12,58.4l-3.83,4.09V69Z"/></g></g></svg>