<svg xmlns="http://www.w3.org/2000/svg" viewBox="0 0 72.99 11.76"><defs><style>.cls-1{fill:teal;}</style></defs><g id="Layer_2" data-name="Layer 2"><g id="Layer_1-2" data-name="Layer 1"><path class="cls-1" d="M10.77,0H1.1A1.09,1.09,0,0,0,0,1.09v9.57a1.1,1.1,0,0,0,1.1,1.1h9.67a1.1,1.1,0,0,0,1.1-1.1V1.09A1.09,1.09,0,0,0,10.77,0ZM6.32,9.67a.47.47,0,0,1-.47.46h-4a.47.47,0,0,1-.47-.46V2.09a.46.46,0,0,1,.47-.46h4a.46.46,0,0,1,.47.46Zm4.2,0a.47.47,0,0,1-.47.46H7.49A.47.47,0,0,1,7,9.67V6.58a.47.47,0,0,1,.47-.46h2.56a.47.47,0,0,1,.47.46Zm0-4.5a.46.46,0,0,1-.47.46H7.49A.46.46,0,0,1,7,5.17V2.09a.46.46,0,0,1,.47-.46h2.56a.46.46,0,0,1,.47.46Z"/><path class="cls-1" d="M19.63,2.24a3.8,3.8,0,0,1,1.62.32,2.34,2.34,0,0,1,1,.92,2.76,2.76,0,0,1,.37,1.45,3.49,3.49,0,0,1-.16,1,2.5,2.5,0,0,1-.5.9,2.39,2.39,0,0,1-.89.65,3.39,3.39,0,0,1-1.35.25H18.48v3.18H17.32V2.24Zm.12,4.36a1.89,1.89,0,0,0,.85-.17A1.32,1.32,0,0,0,21.13,6a2,2,0,0,0,.28-.54A2.06,2.06,0,0,0,21.49,5a2.08,2.08,0,0,0-.08-.54,1.55,1.55,0,0,0-.28-.52,1.56,1.56,0,0,0-.52-.38,1.82,1.82,0,0,0-.79-.15H18.48V6.6Z"/><path class="cls-1" d="M24.17,10.92V1.63h1.1V7.1l0-.2A2.08,2.08,0,0,1,26,6.08a2.27,2.27,0,0,1,1.24-.32,1.61,1.61,0,0,1,1.15.41,1.43,1.43,0,0,1,.46,1.07v3.68H27.74V7.63A1,1,0,0,0,27.51,7a.87.87,0,0,0-.69-.25,1.32,1.32,0,0,0-.77.24,1.75,1.75,0,0,0-.56.67,2.25,2.25,0,0,0-.19,1v2.33Z"/><path class="cls-1" d="M30.37,8.38A2.56,2.56,0,0,1,30.73,7a2.49,2.49,0,0,1,1-1,2.94,2.94,0,0,1,1.43-.35,2.85,2.85,0,0,1,1.42.35,2.41,2.41,0,0,1,.95,1,2.76,2.76,0,0,1,0,2.69,2.41,2.41,0,0,1-.95.95,2.76,2.76,0,0,1-1.43.36,3,3,0,0,1-1.42-.33,2.5,2.5,0,0,1-1-.93A2.63,2.63,0,0,1,30.37,8.38Zm1.13,0a1.71,1.71,0,0,0,.22.87,1.6,1.6,0,0,0,.57.61,1.43,1.43,0,0,0,.82.23,1.46,1.46,0,0,0,.83-.23,1.6,1.6,0,0,0,.57-.61,1.91,1.91,0,0,0,0-1.74,1.73,1.73,0,0,0-.57-.63,1.54,1.54,0,0,0-.83-.23,1.44,1.44,0,0,0-.82.24,1.67,1.67,0,0,0-.58.63A1.77,1.77,0,0,0,31.5,8.4Z"/><path class="cls-1" d="M37.82,3.76H39V6h1.36v.88H39v4.07H37.82V6.85h-.9V6h.9Z"/><path class="cls-1" d="M41.22,8.38A2.65,2.65,0,0,1,41.57,7a2.58,2.58,0,0,1,1-1A2.94,2.94,0,0,1,44,5.74a2.85,2.85,0,0,1,1.42.35,2.48,2.48,0,0,1,1,1,2.64,2.64,0,0,1,.34,1.34,2.66,2.66,0,0,1-.34,1.35,2.48,2.48,0,0,1-1,.95A2.79,2.79,0,0,1,44,11a3,3,0,0,1-1.42-.33,2.5,2.5,0,0,1-1-.93A2.63,2.63,0,0,1,41.22,8.38Zm1.13,0a1.81,1.81,0,0,0,.21.87,1.7,1.7,0,0,0,.58.61,1.58,1.58,0,0,0,1.64,0,1.6,1.6,0,0,0,.57-.61,1.91,1.91,0,0,0,0-1.74,1.73,1.73,0,0,0-.57-.63A1.51,1.51,0,0,0,44,6.67a1.49,1.49,0,0,0-.83.24,1.73,1.73,0,0,0-.57.63A1.77,1.77,0,0,0,42.35,8.4Z"/><path class="cls-1" d="M51.24,11a2.42,2.42,0,0,1-1.22-.3,2.54,2.54,0,0,1-.83-.76l.13-.34v1.28H48.19V1.63h1.12V7.09l0-.43A2.14,2.14,0,0,1,50.13,6a3,3,0,0,1,1.25-.26,2.29,2.29,0,0,1,1.21.33,2.4,2.4,0,0,1,.89.9,2.76,2.76,0,0,1,.33,1.38,2.75,2.75,0,0,1-.36,1.44,2.34,2.34,0,0,1-.94.93A2.66,2.66,0,0,1,51.24,11ZM51,10.09a1.66,1.66,0,0,0,.87-.23,1.6,1.6,0,0,0,.59-.62,1.78,1.78,0,0,0,.22-.89,1.71,1.71,0,0,0-.22-.87,1.6,1.6,0,0,0-.6-.61A1.65,1.65,0,0,0,51,6.64a1.94,1.94,0,0,0-.76.15,1.62,1.62,0,0,0-.92,1v1a1.71,1.71,0,0,0,.32.63,1.66,1.66,0,0,0,.59.45A1.93,1.93,0,0,0,51,10.09Z"/><path class="cls-1" d="M54.87,8.38A2.56,2.56,0,0,1,55.23,7a2.49,2.49,0,0,1,1-1,3,3,0,0,1,1.44-.35,2.83,2.83,0,0,1,1.41.35,2.5,2.5,0,0,1,1,1,2.83,2.83,0,0,1,0,2.69,2.5,2.5,0,0,1-1,.95,2.76,2.76,0,0,1-1.43.36,3,3,0,0,1-1.42-.33,2.5,2.5,0,0,1-1-.93A2.63,2.63,0,0,1,54.87,8.38ZM56,8.4a1.71,1.71,0,0,0,.22.87,1.55,1.55,0,0,0,.58.61,1.4,1.4,0,0,0,.81.23,1.46,1.46,0,0,0,.83-.23A1.6,1.6,0,0,0,59,9.27a1.91,1.91,0,0,0,0-1.74,1.73,1.73,0,0,0-.57-.63,1.54,1.54,0,0,0-.83-.23,1.46,1.46,0,0,0-.82.24,1.67,1.67,0,0,0-.58.63A1.77,1.77,0,0,0,56,8.4Z"/><path class="cls-1" d="M61.41,8.38A2.56,2.56,0,0,1,61.77,7a2.49,2.49,0,0,1,1-1,3,3,0,0,1,1.44-.35,2.83,2.83,0,0,1,1.41.35,2.5,2.5,0,0,1,1,1,2.83,2.83,0,0,1,0,2.69,2.5,2.5,0,0,1-1,.95,2.76,2.76,0,0,1-1.43.36,3,3,0,0,1-1.42-.33,2.41,2.41,0,0,1-1-.93A2.54,2.54,0,0,1,61.41,8.38Zm1.13,0a1.71,1.71,0,0,0,.22.87,1.55,1.55,0,0,0,.58.61,1.4,1.4,0,0,0,.81.23A1.46,1.46,0,0,0,65,9.88a1.6,1.6,0,0,0,.57-.61,1.91,1.91,0,0,0,0-1.74A1.73,1.73,0,0,0,65,6.9a1.54,1.54,0,0,0-.83-.23,1.46,1.46,0,0,0-.82.24,1.67,1.67,0,0,0-.58.63A1.77,1.77,0,0,0,62.54,8.4Z"/><path class="cls-1" d="M68.39,10.92V1.63h1.12v9.29Zm.78-1.59-.11-1.08,3-2.41.69.59Zm1.56-1.71L73,10.92h-1.3L70,8.25Z"/></g></g></svg>